<svg width="367" height="196" viewBox="0 0 367 196" fill="none" xmlns="http://www.w3.org/2000/svg">
<g filter="url(#filter0_ddddd_2180_2557)">
<rect x="23" y="4" width="320.425" height="112" rx="56" fill="#202024"/>
<path fill-rule="evenodd" clip-rule="evenodd" d="M179.762 37.5397C179.068 38.2139 178.731 39.0666 178.731 40.0977C178.731 41.1486 179.088 42.0211 179.762 42.6754C180.476 43.3496 181.408 43.6867 182.578 43.6867C183.748 43.6867 184.68 43.3496 185.394 42.6754C186.107 42.0012 186.464 41.1486 186.464 40.0977C186.464 39.0666 186.107 38.2139 185.413 37.5397C184.719 36.8655 183.768 36.5284 182.598 36.5284C181.408 36.5284 180.456 36.8655 179.762 37.5397ZM179.147 72.637H186.068V46.78H179.147V72.637ZM192.848 49.9526C190.964 52.3717 190.013 55.5642 190.013 59.53H190.033V59.8274C190.033 63.8329 190.984 67.065 192.908 69.4841C194.831 71.9231 197.33 73.1327 200.443 73.1327C203.04 73.1327 205.142 72.2404 206.729 70.4359V71.8239C206.729 73.6284 206.213 75.0164 205.202 75.988C204.171 76.9597 202.743 77.4554 200.919 77.4554C198.46 77.4554 196.378 76.4837 194.653 74.5603L191.599 78.7641C192.531 79.9737 193.879 80.9453 195.684 81.6988C197.468 82.4523 199.312 82.829 201.216 82.829C203.715 82.829 205.896 82.3928 207.76 81.5203C209.624 80.6479 211.071 79.359 212.102 77.6933C213.133 76.0079 213.649 74.0448 213.649 71.7843V46.7998H207.383L207.105 49.2387C205.519 47.2955 203.318 46.3239 200.482 46.3239C197.27 46.3239 194.732 47.5334 192.848 49.9526ZM198.321 65.5381C197.389 64.2096 196.913 62.3655 196.913 60.0257C196.913 57.3488 197.389 55.3064 198.341 53.9778C199.293 52.6096 200.582 51.9355 202.247 51.9355C204.29 51.9355 205.777 52.7088 206.709 54.2951V65.1812C205.797 66.7477 204.29 67.5409 202.188 67.5409C200.542 67.5409 199.253 66.8667 198.321 65.5381ZM224.557 46.7803L224.775 49.7745C226.619 47.4744 229.098 46.3044 232.211 46.3044C234.947 46.3044 236.989 47.1174 238.318 48.7236C239.646 50.3297 240.34 52.729 240.38 55.9413V72.6374H233.48V56.1C233.48 54.6326 233.162 53.5817 232.528 52.9075C231.893 52.2531 230.823 51.916 229.355 51.916C227.412 51.916 225.965 52.7489 224.993 54.3947V72.6175H218.092V46.7803H224.557ZM245.851 37.5397C245.157 38.2139 244.82 39.0666 244.82 40.0977C244.82 41.1486 245.177 42.0211 245.851 42.6754C246.565 43.3496 247.497 43.6867 248.667 43.6867C249.837 43.6867 250.769 43.3496 251.483 42.6754C252.196 42.0012 252.553 41.1486 252.553 40.0977C252.553 39.0666 252.196 38.2139 251.502 37.5397C250.808 36.8655 249.857 36.5284 248.687 36.5284C247.497 36.5284 246.545 36.8655 245.851 37.5397ZM245.236 72.637H252.157V46.78H245.236V72.637ZM265.384 40.4547V46.7801H269.806V51.8365H265.384V64.7452C265.384 65.697 265.562 66.391 265.939 66.8074C266.296 67.2238 267.01 67.4221 268.041 67.4221C268.814 67.4221 269.488 67.3626 270.063 67.2635V72.4983C268.715 72.9147 267.307 73.113 265.879 73.113C261.041 73.113 258.562 70.6741 258.483 65.7763V51.8563H254.716V46.7999H258.483V40.4547H265.384ZM275.536 69.6234C277.916 71.9434 281.009 73.1133 284.796 73.1133C286.958 73.1133 288.921 72.6969 290.666 71.8641C292.431 71.0511 293.838 69.901 294.87 68.4337L291.479 64.6265C289.992 66.5499 287.91 67.5215 285.252 67.5215C283.527 67.5215 282.119 67.006 280.989 65.9947C279.859 64.9636 279.185 63.6152 278.967 61.9298H295.425V59.114C295.425 55.0293 294.394 51.8566 292.371 49.6358C290.349 47.3951 287.553 46.2847 284.023 46.2847C281.683 46.2847 279.581 46.8399 277.737 47.9503C275.893 49.0607 274.485 50.6471 273.474 52.6894C272.463 54.7318 271.967 57.0518 271.967 59.6494V60.3236C271.967 64.2101 273.157 67.3034 275.536 69.6234ZM280.692 53.2645C281.544 52.3325 282.655 51.8764 284.023 51.8764C285.471 51.8764 286.601 52.2929 287.394 53.1257C288.207 53.9783 288.604 55.1681 288.643 56.6949V57.2501H279.046C279.304 55.525 279.839 54.1964 280.692 53.2645Z" fill="white"/>
<path opacity="0.5" d="M143.021 24.4864L125.395 90.2992C125.306 90.5979 124.947 90.6876 124.738 90.4784L112.938 78.6781L121.781 45.6971C121.87 45.3983 121.601 45.1294 121.303 45.2191L88.3215 54.0618L76.5809 42.3213C76.3718 42.1122 76.4615 41.7537 76.7602 41.664L142.543 24.0084C142.842 23.9487 143.111 24.2175 143.021 24.4864Z" fill="#00B37E"/>
<path opacity="0.5" d="M112.938 78.6786L108.397 95.7068C108.307 96.0056 107.949 96.0952 107.74 95.8861L71.114 59.2902C70.9048 59.0811 70.9945 58.7226 71.2932 58.633L88.3215 54.0623L112.938 78.6786Z" fill="#00B37E"/>
<path d="M121.781 45.6969L112.938 78.678L88.3218 54.0617L121.303 45.2189C121.602 45.1293 121.87 45.3982 121.781 45.6969Z" fill="#00B37E"/>
</g>
<defs>
<filter id="filter0_ddddd_2180_2557" x="0" y="0" width="366.425" height="196" filterUnits="userSpaceOnUse" color-interpolation-filters="sRGB">
<feFlood flood-opacity="0" result="BackgroundImageFix"/>
<feColorMatrix in="SourceAlpha" type="matrix" values="0 0 0 0 0 0 0 0 0 0 0 0 0 0 0 0 0 0 127 0" result="hardAlpha"/>
<feOffset/>
<feColorMatrix type="matrix" values="0 0 0 0 0 0 0 0 0 0 0 0 0 0 0 0 0 0 0.15 0"/>
<feBlend mode="normal" in2="BackgroundImageFix" result="effect1_dropShadow_2180_2557"/>
<feColorMatrix in="SourceAlpha" type="matrix" values="0 0 0 0 0 0 0 0 0 0 0 0 0 0 0 0 0 0 127 0" result="hardAlpha"/>
<feOffset dy="4"/>
<feGaussianBlur stdDeviation="4"/>
<feColorMatrix type="matrix" values="0 0 0 0 0 0 0 0 0 0 0 0 0 0 0 0 0 0 0.15 0"/>
<feBlend mode="normal" in2="effect1_dropShadow_2180_2557" result="effect2_dropShadow_2180_2557"/>
<feColorMatrix in="SourceAlpha" type="matrix" values="0 0 0 0 0 0 0 0 0 0 0 0 0 0 0 0 0 0 127 0" result="hardAlpha"/>
<feOffset dy="14"/>
<feGaussianBlur stdDeviation="7"/>
<feColorMatrix type="matrix" values="0 0 0 0 0 0 0 0 0 0 0 0 0 0 0 0 0 0 0.13 0"/>
<feBlend mode="normal" in2="effect2_dropShadow_2180_2557" result="effect3_dropShadow_2180_2557"/>
<feColorMatrix in="SourceAlpha" type="matrix" values="0 0 0 0 0 0 0 0 0 0 0 0 0 0 0 0 0 0 127 0" result="hardAlpha"/>
<feOffset dy="32"/>
<feGaussianBlur stdDeviation="9.5"/>
<feColorMatrix type="matrix" values="0 0 0 0 0 0 0 0 0 0 0 0 0 0 0 0 0 0 0.08 0"/>
<feBlend mode="normal" in2="effect3_dropShadow_2180_2557" result="effect4_dropShadow_2180_2557"/>
<feColorMatrix in="SourceAlpha" type="matrix" values="0 0 0 0 0 0 0 0 0 0 0 0 0 0 0 0 0 0 127 0" result="hardAlpha"/>
<feOffset dy="57"/>
<feGaussianBlur stdDeviation="11.5"/>
<feColorMatrix type="matrix" values="0 0 0 0 0 0 0 0 0 0 0 0 0 0 0 0 0 0 0.02 0"/>
<feBlend mode="normal" in2="effect4_dropShadow_2180_2557" result="effect5_dropShadow_2180_2557"/>
<feBlend mode="normal" in="SourceGraphic" in2="effect5_dropShadow_2180_2557" result="shape"/>
</filter>
</defs>
</svg>
